<svg id="facebook.svg" xmlns="http://www.w3.org/2000/svg" width="29" height="29" viewBox="0 0 29 29">
  <defs>
    <style>
      .cls-1 {
        fill-rule: evenodd;
      }
    </style>
  </defs>
  <path id="Эллипс_4_копия_3" data-name="Эллипс 4 копия 3" class="cls-1" d="M1485.5,5726a14.5,14.5,0,1,1-14.5,14.5A14.5,14.5,0,0,1,1485.5,5726Zm-0.02.69a13.81,13.81,0,1,1-13.79,13.81A13.8,13.8,0,0,1,1485.48,5726.69Z" transform="translate(-1471 -5726)"/>
  <path id="Forma_1_копия_7" data-name="Forma 1 копия 7" class="cls-1" d="M1488.72,5740.84h-2.03v7.25h-2.78v-7.25h-1.86v-2.49h1.86l-0.01-1.47c0-2.04.57-3.28,3.03-3.28h2.04v2.5h-1.28c-0.95,0-1,.35-1,1v1.25h2.3Z" transform="translate(-1471 -5726)"/>
</svg>
