<svg xmlns="http://www.w3.org/2000/svg" width="20" height="19.97" viewBox="0 0 20 19.97">
  <metadata><?xpacket begin="﻿" id="W5M0MpCehiHzreSzNTczkc9d"?>
<x:xmpmeta xmlns:x="adobe:ns:meta/" x:xmptk="Adobe XMP Core 5.6-c142 79.160924, 2017/07/13-01:06:39        ">
   <rdf:RDF xmlns:rdf="http://www.w3.org/1999/02/22-rdf-syntax-ns#">
      <rdf:Description rdf:about=""/>
   </rdf:RDF>
</x:xmpmeta>
                                                                                                    
                                                                                                    
                                                                                                    
                                                                                                    
                                                                                                    
                                                                                                    
                                                                                                    
                                                                                                    
                                                                                                    
                                                                                                    
                                                                                                    
                                                                                                    
                                                                                                    
                                                                                                    
                                                                                                    
                                                                                                    
                                                                                                    
                                                                                                    
                                                                                                    
                                                                                                    
                           
<?xpacket end="w"?></metadata>
<defs>
    <style>
      .cls-1 {
        fill-rule: evenodd;
      }
    </style>
  </defs>
  <path id="Forma_1" data-name="Forma 1" class="cls-1" d="M641.485,2569.73L639,2567.25a1.77,1.77,0,0,0-2.486,0l-1.13,1.13a1.333,1.333,0,0,1-1.884,0l-4.9-4.9a1.326,1.326,0,0,1,0-1.88c0.182-.18.7-0.7,1.13-1.13a1.749,1.749,0,0,0,0-2.48l-2.486-2.48a1.767,1.767,0,0,0-2.484,0c-0.512.51-.677,0.67-0.906,0.9a6.328,6.328,0,0,0,0,8.95l7.761,7.76a6.351,6.351,0,0,0,8.966,0l0.9-.9A1.764,1.764,0,0,0,641.485,2569.73Zm-15.9-13.39a0.584,0.584,0,0,1,.829,0l2.486,2.48a0.575,0.575,0,0,1,0,.82l-0.414.42-3.313-3.31Zm6.857,15.95-7.761-7.75a5.147,5.147,0,0,1-.324-6.95l3.3,3.3a2.5,2.5,0,0,0,.109,3.42l4.9,4.9h0a2.521,2.521,0,0,0,3.424.11l3.3,3.29A5.15,5.15,0,0,1,632.444,2572.29Zm8.213-.9-0.415.41-3.315-3.31,0.414-.41a0.584,0.584,0,0,1,.829,0l2.487,2.48A0.589,0.589,0,0,1,640.657,2571.39Z" transform="translate(-622 -2555.03)"/>
</svg>
