<svg xmlns="http://www.w3.org/2000/svg" width="18" height="17" viewBox="0 0 18 17">
  <metadata><?xpacket begin="﻿" id="W5M0MpCehiHzreSzNTczkc9d"?>
<x:xmpmeta xmlns:x="adobe:ns:meta/" x:xmptk="Adobe XMP Core 5.6-c142 79.160924, 2017/07/13-01:06:39        ">
   <rdf:RDF xmlns:rdf="http://www.w3.org/1999/02/22-rdf-syntax-ns#">
      <rdf:Description rdf:about=""/>
   </rdf:RDF>
</x:xmpmeta>
                                                                                                    
                                                                                                    
                                                                                                    
                                                                                                    
                                                                                                    
                                                                                                    
                                                                                                    
                                                                                                    
                                                                                                    
                                                                                                    
                                                                                                    
                                                                                                    
                                                                                                    
                                                                                                    
                                                                                                    
                                                                                                    
                                                                                                    
                                                                                                    
                                                                                                    
                                                                                                    
                           
<?xpacket end="w"?></metadata>
<defs>
    <style>
      .cls-1 {
        fill-rule: evenodd;
      }
    </style>
  </defs>
  <path id="Forma_1" data-name="Forma 1" class="cls-1" d="M631.97,2505.54a4.77,4.77,0,1,0-4.817-4.78A4.8,4.8,0,0,0,631.97,2505.54Zm0-8.29a3.515,3.515,0,1,1-3.546,3.51A3.539,3.539,0,0,1,631.97,2497.25ZM623.635,2513h16.729a0.629,0.629,0,0,0,.636-0.63,6.022,6.022,0,0,0-6.044-5.99h-5.912a6.024,6.024,0,0,0-6.044,5.99A0.629,0.629,0,0,0,623.635,2513Zm5.409-5.36h5.912a4.751,4.751,0,0,1,4.729,4.1h-15.37A4.768,4.768,0,0,1,629.044,2507.64Z" transform="translate(-623 -2496)"/>
</svg>
