<svg xmlns="http://www.w3.org/2000/svg" width="21" height="15" viewBox="0 0 21 15">
  <metadata><?xpacket begin="﻿" id="W5M0MpCehiHzreSzNTczkc9d"?>
<x:xmpmeta xmlns:x="adobe:ns:meta/" x:xmptk="Adobe XMP Core 5.6-c142 79.160924, 2017/07/13-01:06:39        ">
   <rdf:RDF xmlns:rdf="http://www.w3.org/1999/02/22-rdf-syntax-ns#">
      <rdf:Description rdf:about=""/>
   </rdf:RDF>
</x:xmpmeta>
                                                                                                    
                                                                                                    
                                                                                                    
                                                                                                    
                                                                                                    
                                                                                                    
                                                                                                    
                                                                                                    
                                                                                                    
                                                                                                    
                                                                                                    
                                                                                                    
                                                                                                    
                                                                                                    
                                                                                                    
                                                                                                    
                                                                                                    
                                                                                                    
                                                                                                    
                                                                                                    
                           
<?xpacket end="w"?></metadata>
<defs>
    <style>
      .cls-1 {
        fill-rule: evenodd;
      }
    </style>
  </defs>
  <path class="cls-1" d="M639.436,2616H623.568a2.494,2.494,0,0,0-2.568,2.41v10.18a2.494,2.494,0,0,0,2.568,2.41h15.864a2.5,2.5,0,0,0,2.568-2.41v-10.18A2.488,2.488,0,0,0,639.436,2616Zm1.395,12.59a1.358,1.358,0,0,1-1.395,1.31H623.568a1.358,1.358,0,0,1-1.395-1.31v-10.18a1.358,1.358,0,0,1,1.395-1.31h15.864a1.358,1.358,0,0,1,1.395,1.31v10.18h0Zm-6.587-5.22,5.136-4.32a0.531,0.531,0,0,0,.043-0.78,0.626,0.626,0,0,0-.83-0.04l-7.082,5.97-1.382-1.16a0.012,0.012,0,0,0-.009-0.01,0.5,0.5,0,0,0-.1-0.08l-5.623-4.72a0.6,0.6,0,0,0-.83.04,0.528,0.528,0,0,0,.048.78l5.2,4.36-5.175,4.55a0.53,0.53,0,0,0-.026.78,0.631,0.631,0,0,0,.43.17,0.6,0.6,0,0,0,.4-0.15l5.253-4.61,1.425,1.2a0.632,0.632,0,0,0,.391.14,0.581,0.581,0,0,0,.391-0.15l1.464-1.23,5.223,4.66a0.614,0.614,0,0,0,.4.15,0.621,0.621,0,0,0,.426-0.17,0.53,0.53,0,0,0-.022-0.78Z" transform="translate(-621 -2616)"/>
</svg>
