<svg id="ins.svg" xmlns="http://www.w3.org/2000/svg" width="29" height="29" viewBox="0 0 29 29">
  <defs>
    <style>
      .cls-1 {
        fill-rule: evenodd;
      }
    </style>
  </defs>
  <path id="Эллипс_4_копия" data-name="Эллипс 4 копия" class="cls-1" d="M1555.5,5726a14.5,14.5,0,1,1-14.5,14.5A14.5,14.5,0,0,1,1555.5,5726Zm0.02,0.69a13.81,13.81,0,1,1-13.8,13.81A13.8,13.8,0,0,1,1555.52,5726.69Z" transform="translate(-1541 -5726)"/>
  <path id="Forma_1_копия_5" data-name="Forma 1 копия 5" class="cls-1" d="M1559.7,5747.71h-8.63a2.689,2.689,0,0,1-2.72-2.65v-8.43a2.689,2.689,0,0,1,2.72-2.65h8.62a2.689,2.689,0,0,1,2.72,2.65v8.43A2.687,2.687,0,0,1,1559.7,5747.71Zm-2.31-8.28a2.52,2.52,0,0,0-4.02,0,2.41,2.41,0,0,0-.47,1.41,2.481,2.481,0,0,0,4.96,0A2.41,2.41,0,0,0,1557.39,5739.43Zm3.4-3.57v-0.3h-0.31l-2.08.01,0.01,2.32h2.38v-2.03Zm0.25,3.57h-2.1a3.741,3.741,0,0,1,.29,1.41,3.851,3.851,0,0,1-7.7,0,3.558,3.558,0,0,1,.29-1.41h-2.1v5.63a1.328,1.328,0,0,0,1.34,1.31h8.63a1.33,1.33,0,0,0,1.35-1.31v-5.63Z" transform="translate(-1541 -5726)"/>
</svg>
