<svg xmlns="http://www.w3.org/2000/svg" width="45" height="34" viewBox="0 0 45 34">
  <defs>
    <style>
      .cls-1 {
        fill: #fff;
        fill-rule: evenodd;
      }
    </style>
  </defs>
  <path id="mas.svg" class="cls-1" d="M977.506,5139h-34a5.487,5.487,0,0,0-5.5,5.46v23.08a5.487,5.487,0,0,0,5.5,5.46H977.5a5.487,5.487,0,0,0,5.5-5.46v-23.07A5.481,5.481,0,0,0,977.506,5139Zm2.989,28.54a2.979,2.979,0,0,1-2.989,2.96h-34a2.979,2.979,0,0,1-2.989-2.96v-23.07a2.988,2.988,0,0,1,2.989-2.97H977.5a2.987,2.987,0,0,1,2.988,2.97v23.07h0.01Zm-14.115-11.83,11-9.8a1.24,1.24,0,0,0,.093-1.76,1.26,1.26,0,0,0-1.778-.09l-15.177,13.52-2.961-2.63a0.021,0.021,0,0,1-.019-0.02,1.836,1.836,0,0,0-.2-0.18l-12.049-10.7a1.252,1.252,0,0,0-1.778.1,1.233,1.233,0,0,0,.1,1.76l11.136,9.89-11.089,10.3a1.252,1.252,0,0,0-.056,1.77,1.255,1.255,0,0,0,1.778.06l11.257-10.45,3.054,2.71a1.272,1.272,0,0,0,1.676-.01l3.138-2.79,11.192,10.55a1.255,1.255,0,0,0,.866.34,1.286,1.286,0,0,0,.912-0.38,1.252,1.252,0,0,0-.046-1.77Z" transform="translate(-938 -5139)"/>
</svg>
