<svg xmlns="http://www.w3.org/2000/svg" width="28.375" height="28.69" viewBox="0 0 28.375 28.69">
  <defs>
    <style>
      .cls-1 {
        fill: #8051f5;
        fill-rule: evenodd;
      }
    </style>
  </defs>
  <path id="phone1.svg" class="cls-1" d="M379.27,4995.47l-3.524-3.57a2.481,2.481,0,0,0-3.525,0l-1.6,1.62a1.865,1.865,0,0,1-2.67,0L361,4986.49a1.935,1.935,0,0,1,0-2.71l1.6-1.62a2.545,2.545,0,0,0,0-3.57l-3.523-3.55a2.46,2.46,0,0,0-3.522,0c-0.726.72-.96,0.96-1.285,1.28a9.192,9.192,0,0,0,0,12.87l11,11.14a8.9,8.9,0,0,0,12.711,0l1.281-1.3A2.538,2.538,0,0,0,379.27,4995.47Zm-22.538-19.24a0.822,0.822,0,0,1,1.176,0l3.524,3.55a0.85,0.85,0,0,1,0,1.19l-0.588.6-4.7-4.76Zm9.721,22.91-11-11.14a7.462,7.462,0,0,1-.458-9.98l4.683,4.74a3.63,3.63,0,0,0,.154,4.92l6.944,7.03h0a3.521,3.521,0,0,0,4.854.16l4.683,4.74A7.227,7.227,0,0,1,366.453,4999.14Zm11.643-1.3-0.588.6-4.7-4.76,0.588-.59a0.821,0.821,0,0,1,1.175,0l3.525,3.57A0.84,0.84,0,0,1,378.1,4997.84Z" transform="translate(-351.656 -4974.31)"/>
</svg>
