<svg xmlns="http://www.w3.org/2000/svg" width="50" height="50" viewBox="0 0 50 50">
  <defs>
    <style>
      .cls-1 {
        fill: #fff;
        fill-rule: evenodd;
      }
    </style>
  </defs>
  <path id="sl1.svg" class="cls-1" d="M483.663,556.847a4.483,4.483,0,0,0,.853-2.632v-5.867a0.977,0.977,0,0,0-.977-0.977h-4.364a3.663,3.663,0,0,0-3.659,3.659v3.185a4.472,4.472,0,0,0,.852,2.631,6.278,6.278,0,0,0-1.909.635,8.311,8.311,0,0,0-6.135-3.657l-0.03-.007a5.742,5.742,0,0,0,1.471-3.842V542a0.976,0.976,0,0,0-.976-0.977h-5.932a4.628,4.628,0,0,0-4.622,4.623v4.329a5.742,5.742,0,0,0,1.471,3.842l-0.03.007a8.311,8.311,0,0,0-6.135,3.657,6.287,6.287,0,0,0-1.909-.635,4.479,4.479,0,0,0,.852-2.631v-5.867a0.976,0.976,0,0,0-.976-0.977h-4.365a3.663,3.663,0,0,0-3.659,3.659v3.185a4.476,4.476,0,0,0,.853,2.632A6.378,6.378,0,0,0,439,563.13v2.893a0.975,0.975,0,0,0,.976.976h48.047a0.976,0.976,0,0,0,.977-0.976V563.13A6.378,6.378,0,0,0,483.663,556.847Zm-38.226-5.817a1.708,1.708,0,0,1,1.706-1.706h3.388v1.189a1.058,1.058,0,0,1-1.057,1.058h-4.037V551.03Zm0,2.494h4.037a2.969,2.969,0,0,0,1.057-.193v0.884a2.547,2.547,0,1,1-5.094,0v-0.691Zm3.177,5.191-0.63.63-0.629-.63h1.259Zm3.526,3.376v2.956H440.953V563.13a4.423,4.423,0,0,1,3.7-4.356l2.642,2.643a0.977,0.977,0,0,0,1.381,0l2.643-2.643a4.364,4.364,0,0,1,1.334.446A8.26,8.26,0,0,0,452.14,562.091Zm11.86-8.3a3.816,3.816,0,0,1-3.812-3.812v-1.29h5.836a3.722,3.722,0,0,0,1.788-.456v1.746A3.816,3.816,0,0,1,464,553.787Zm1.7,1.953-1.7,1.7-1.7-1.7h3.4Zm-5.514-10.094h0a2.672,2.672,0,0,1,2.669-2.67h4.955v1.967a1.79,1.79,0,0,1-1.788,1.788h-5.836v-1.085h0Zm13.719,19.4H454.093v-1.953h6.359a0.977,0.977,0,0,0,0-1.954h-6.288a6.365,6.365,0,0,1,5.43-5.341l3.715,3.716a0.979,0.979,0,0,0,1.381,0l3.716-3.716a6.36,6.36,0,0,1,5.5,6.292v2.956h0Zm3.562-14.017a1.708,1.708,0,0,1,1.706-1.706h3.387v1.189a1.058,1.058,0,0,1-1.057,1.058h-4.036V551.03Zm0,2.494h4.036a2.969,2.969,0,0,0,1.057-.193v0.884a2.547,2.547,0,1,1-5.093,0v-0.691h0Zm3.176,5.191-0.629.63-0.63-.63h1.259Zm-4.785,6.332v-2.956a8.26,8.26,0,0,0-.512-2.871,4.366,4.366,0,0,1,1.334-.447l2.643,2.644a0.977,0.977,0,0,0,1.381,0l2.642-2.643a4.423,4.423,0,0,1,3.7,4.356v1.917H475.86Zm-7.047-41.667a0.977,0.977,0,0,0-1.381,0l-4.792,4.792-2.072-2.071a0.977,0.977,0,0,0-1.381,1.381l2.762,2.762a0.977,0.977,0,0,0,1.381,0l5.483-5.483A0.977,0.977,0,0,0,468.813,523.38Zm-0.82-5.533a0.976,0.976,0,1,0-.8,1.783,7.86,7.86,0,1,1-6.428.016,0.977,0.977,0,0,0-.8-1.781A9.813,9.813,0,1,0,467.993,517.847ZM464.035,517H464a0.977,0.977,0,1,0,0,1.953h0.03A0.977,0.977,0,0,0,464.035,517Zm0.655,44.426a0.974,0.974,0,1,0,.287.691A0.984,0.984,0,0,0,464.69,561.426Z" transform="translate(-439 -517)"/>
</svg>
