<svg xmlns="http://www.w3.org/2000/svg" width="50" height="34" viewBox="0 0 50 34">
  <defs>
    <style>
      .cls-1 {
        fill: #fff;
        fill-rule: evenodd;
      }
    </style>
  </defs>
  <path id="sl2.svg" class="cls-1" d="M715.571,525H672.429A3.522,3.522,0,0,0,669,528.6v13.2a5.857,5.857,0,0,0,5.7,5.989h38.6A5.857,5.857,0,0,0,719,541.8V528.6A3.522,3.522,0,0,0,715.571,525Zm-39.137,2.89h35.132v3.4a2.373,2.373,0,0,1-2.31,2.427H678.743a2.373,2.373,0,0,1-2.309-2.427v-3.4h0ZM716.248,541.8a3.03,3.03,0,0,1-2.95,3.1H674.7a3.031,3.031,0,0,1-2.951-3.1V528.6a0.7,0.7,0,0,1,.678-0.711h1.253v3.4a5.2,5.2,0,0,0,5.061,5.317h30.513a5.2,5.2,0,0,0,5.061-5.317v-3.4h1.254a0.7,0.7,0,0,1,.677.711v13.2h0Zm-3.306-1.446H675.058a1.447,1.447,0,0,0,0,2.891h37.884A1.447,1.447,0,0,0,712.942,540.357Zm-27.4,12c-0.047-.027-0.089-0.054-0.129-0.079a1.469,1.469,0,0,0,.762-1.779,1.363,1.363,0,0,0-1.737-.92,3.154,3.154,0,0,0-2.2,2.393c-0.1,1.1.558,2.078,1.96,2.9a1.188,1.188,0,0,1,.564.5,2.05,2.05,0,0,1-.72,1.024,1.494,1.494,0,0,0-.269,2.024,1.354,1.354,0,0,0,1.1.575,1.331,1.331,0,0,0,.828-0.292,4.65,4.65,0,0,0,1.807-3.526A3.519,3.519,0,0,0,685.546,552.354Zm9.127,0c-0.046-.027-0.088-0.054-0.128-0.079a1.471,1.471,0,0,0,.762-1.779,1.363,1.363,0,0,0-1.737-.92,3.154,3.154,0,0,0-2.2,2.393c-0.1,1.1.558,2.078,1.96,2.9a1.188,1.188,0,0,1,.564.5,2.05,2.05,0,0,1-.72,1.024,1.494,1.494,0,0,0-.269,2.024A1.352,1.352,0,0,0,694,559a1.331,1.331,0,0,0,.828-0.292,4.653,4.653,0,0,0,1.807-3.526A3.519,3.519,0,0,0,694.673,552.354Zm9.128,0c-0.046-.027-0.089-0.054-0.129-0.079a1.47,1.47,0,0,0,.763-1.779,1.363,1.363,0,0,0-1.737-.92,3.152,3.152,0,0,0-2.2,2.393c-0.1,1.1.557,2.078,1.959,2.9a1.187,1.187,0,0,1,.565.5,2.056,2.056,0,0,1-.72,1.024,1.494,1.494,0,0,0-.269,2.024,1.352,1.352,0,0,0,1.1.575,1.331,1.331,0,0,0,.828-0.292,4.653,4.653,0,0,0,1.807-3.526A3.519,3.519,0,0,0,703.8,552.354Z" transform="translate(-669 -525)"/>
</svg>
