<svg xmlns="http://www.w3.org/2000/svg" width="40" height="40" viewBox="0 0 40 40">
  <defs>
    <style>
      .cls-1 {
        fill: #fff;
        fill-rule: evenodd;
      }
    </style>
  </defs>
  <path id="sl3.svg" class="cls-1" d="M951.283,552.03c-3.58-3.58-3.345-3.354-3.446-3.428l-9.476-7,3.676-3.677a8.2,8.2,0,0,0,10.157-11.264,1.173,1.173,0,0,0-1.886-.323l-3.03,3.031a1.172,1.172,0,1,1-1.657-1.657l3.03-3.031a1.172,1.172,0,0,0-.323-1.886,8.2,8.2,0,0,0-11.261,10.159l-4.24,4.24c-0.863-.672.276,0.475-7.854-8.147l0.852-.853a1.172,1.172,0,0,0-.225-1.833l-6.275-3.766a4.173,4.173,0,0,0-5.724,5.726l3.764,6.276a1.172,1.172,0,0,0,1.833.226l0.8-.8c8.088,8.578,7.024,7.412,7.663,8.235,0.015,0.019.032,0.036,0.048,0.055l-3.759,3.76A8.2,8.2,0,0,0,913.8,557.335a1.173,1.173,0,0,0,1.886.323l3.03-3.031a1.172,1.172,0,0,1,1.657,1.657l-3.031,3.031a1.173,1.173,0,0,0,.324,1.886,8.2,8.2,0,0,0,11.261-10.159l3.211-3.211,7.475,9.086c0.057,0.069-.131-0.123,3.212,3.221a6.286,6.286,0,0,0,4.427,1.849,5.6,5.6,0,0,0,3.289-1.038A5.865,5.865,0,0,0,951.283,552.03Zm-30.4-20.5a1.172,1.172,0,0,0-1.681-.024l-0.6.6-2.993-4.99a1.829,1.829,0,0,1,2.51-2.51l4.988,2.994-0.6.6a1.172,1.172,0,0,0-.024,1.633c9.341,9.907,7.872,8.416,8.669,9.037l-1.777,1.778C928.765,539.854,930.192,541.412,920.879,531.535Zm5.835,18.4a1.173,1.173,0,0,0-.229,1.334,5.86,5.86,0,0,1-5.294,8.385,5.967,5.967,0,0,1-.822-0.058l1.658-1.658a3.515,3.515,0,0,0-4.971-4.972l-1.657,1.658a5.86,5.86,0,0,1,8.325-6.117,1.171,1.171,0,0,0,1.333-.229l14.22-14.222a1.171,1.171,0,0,0,.228-1.333,5.862,5.862,0,0,1,6.116-8.327l-1.657,1.658a3.515,3.515,0,0,0,4.97,4.971l1.658-1.658a5.86,5.86,0,0,1-8.325,6.118,1.173,1.173,0,0,0-1.334.229Zm7.08-3.767,2.891-2.892,2.947,2.176-3.521,3.522C933.718,546.067,933.867,546.243,933.794,546.171Zm15.374,12.877a3.683,3.683,0,0,1-4.689-.567l-3.1-3.1-3.776-4.59,3.931-3.932,4.837,3.572,3.251,3.252A3.518,3.518,0,0,1,949.168,559.048Zm-1.219-3.906-4.686-4.686a1.171,1.171,0,1,0-1.656,1.657l4.686,4.686A1.171,1.171,0,1,0,947.949,555.142Z" transform="translate(-913 -522)"/>
</svg>
