<svg xmlns="http://www.w3.org/2000/svg" width="33.656" height="44.56" viewBox="0 0 33.656 44.56">
  <defs>
    <style>
      .cls-1 {
        fill-rule: evenodd;
      }
    </style>
  </defs>
  <path id="w1.svg" class="cls-1" d="M519.138,3637.39a0.511,0.511,0,0,1-.509-0.51c0-8.73-6.96-12.05-8.788-12.78l-0.138,2.54a0.527,0.527,0,0,1-.508.49,0.549,0.549,0,0,1-.216-0.05l-2.967-1.4a0.521,0.521,0,0,1-.244-0.69,0.511,0.511,0,0,1,.677-0.24l2.283,1.08,0.193-3.56a0.522,0.522,0,0,1,.537-0.49,0.516,0.516,0,0,1,.48.54l-0.038.71c1.382,0.5,9.748,3.94,9.748,13.85A0.511,0.511,0,0,1,519.138,3637.39Zm-8.061-21.69c-0.592,5.81-5.128,8.43-8.2,8.43s-7.615-2.62-8.206-8.43a3.929,3.929,0,0,1-2.113-3.78c0.011-.39.046-1.57,0.861-1.88a1.922,1.922,0,0,1,1.815.72,0.51,0.51,0,0,1-.024.72,0.516,0.516,0,0,1-.72-0.02,0.555,0.555,0,1,0-.914.49,2.834,2.834,0,0,0,1.716,2.9,0.531,0.531,0,0,1,.33.35l0.027,0.1a0.473,0.473,0,0,1,.016.09c0.486,5.83,5.069,7.71,7.212,7.71s6.726-1.88,7.211-7.71a0.473,0.473,0,0,1,.016-0.09l0.027-.1a0.533,0.533,0,0,1,.33-0.35,2.83,2.83,0,0,0,1.716-2.9,1.367,1.367,0,0,0-.206-0.95,1.352,1.352,0,0,0-.708.46,0.516,0.516,0,0,1-.72.02,0.511,0.511,0,0,1-.024-0.72,1.922,1.922,0,0,1,1.816-.72c0.814,0.31.848,1.49,0.86,1.88A3.929,3.929,0,0,1,511.077,3615.7Zm-9.162-3.78a0.486,0.486,0,0,1,.386.18,0.394,0.394,0,0,1,.091.16h0.959a0.4,0.4,0,0,1,.09-0.16,0.489,0.489,0,0,1,.387-0.18h4.933a0.494,0.494,0,0,1,.362.15,0.519,0.519,0,0,1,.147.37c-0.007.41-.086,2.49-0.928,3.18a3.574,3.574,0,0,1-2.164.7,2.355,2.355,0,0,1-1.793-.68,5.8,5.8,0,0,1-.916-2.35h-1.195a5.774,5.774,0,0,1-.916,2.35,2.354,2.354,0,0,1-1.793.68,3.573,3.573,0,0,1-2.163-.7c-0.843-.69-0.921-2.77-0.928-3.18a0.518,0.518,0,0,1,.146-0.37,0.5,0.5,0,0,1,.363-0.15h4.932Zm3.222,3.03a1.4,1.4,0,0,0,1.04.34,2.6,2.6,0,0,0,1.523-.47,3.621,3.621,0,0,0,.523-1.88h-3.785A5.611,5.611,0,0,0,505.137,3614.95Zm-7.094-.13a2.6,2.6,0,0,0,1.522.47,1.4,1.4,0,0,0,1.041-.34,5.591,5.591,0,0,0,.7-2.01H497.52A3.631,3.631,0,0,0,498.043,3614.82Zm13.179-5.43h-16.7a0.511,0.511,0,0,1-.509-0.51c0-3.91.006-7.95,6.848-8.59,0.037-.47.924-0.85,2.011-0.85s1.973,0.38,2.011.85c6.842,0.64,6.848,4.68,6.848,8.59A0.511,0.511,0,0,1,511.222,3609.39Zm-8.35-8.16c-7.525,0-7.829,3.11-7.84,7.14h4.514a1.854,1.854,0,0,1,2.029-1.42h2.593a1.854,1.854,0,0,1,2.029,1.42h4.514C510.7,3604.34,510.4,3601.23,502.872,3601.23Zm2.775,3.4a0.515,0.515,0,0,1,0,1.03h-0.986a0.509,0.509,0,0,1-.441-0.26l-0.346-.6h-2l-0.346.6a0.509,0.509,0,0,1-.441.26H500.1a0.515,0.515,0,0,1,0-1.03h0.692l0.2-.35-0.2-.34H500.1a0.515,0.515,0,0,1,0-1.03h0.987a0.51,0.51,0,0,1,.441.26l0.346,0.6h2l0.346-.6a0.509,0.509,0,0,1,.441-0.26h0.986a0.515,0.515,0,0,1,0,1.03h-0.692l-0.2.34,0.2,0.35h0.692Zm-9.938,17.69a0.509,0.509,0,1,1,1.017-.05l0.193,3.56,2.284-1.08a0.511,0.511,0,0,1,.677.24,0.522,0.522,0,0,1-.244.69l-2.968,1.4a0.542,0.542,0,0,1-.216.05,0.529,0.529,0,0,1-.508-0.49l-0.139-2.54a13.331,13.331,0,0,0-8.787,12.78,0.509,0.509,0,1,1-1.018,0c0-10.24,8.829-13.53,9.748-13.85Zm-2.649,12.33a0.511,0.511,0,0,1,.509.51v7.99a0.509,0.509,0,1,1-1.018,0v-7.99A0.511,0.511,0,0,1,493.06,3634.65Zm2.3-1.82h4.751a0.51,0.51,0,0,1,0,1.02h-4.751A0.51,0.51,0,0,1,495.363,3632.83Zm7.712-7.43a0.5,0.5,0,0,1,.509.51v17.58a0.509,0.509,0,1,1-1.018,0v-17.58A0.5,0.5,0,0,1,503.075,3625.4Zm9.512,9.25a0.511,0.511,0,0,1,.509.51v7.99a0.509,0.509,0,1,1-1.018,0v-7.99A0.511,0.511,0,0,1,512.587,3634.65Z" transform="translate(-486 -3599.44)"/>
</svg>
