<svg xmlns="http://www.w3.org/2000/svg" width="28.625" height="42.41" viewBox="0 0 28.625 42.41">
  <defs>
    <style>
      .cls-1 {
        fill-rule: evenodd;
      }
    </style>
  </defs>
  <path id="w2.svg" class="cls-1" d="M817.946,3635.36a0.623,0.623,0,0,0-.623.62v5.84a0.34,0.34,0,0,1-.343.34h-3.346v-12.23a0.622,0.622,0,0,0-1.244,0v12.23h-6.737l1.954-2.14a1.129,1.129,0,0,0,.269-0.9s0-.01,0-0.01l-1.861-10.98,0.5-.75a1.4,1.4,0,0,0,.89.39,1.087,1.087,0,0,0,.976-0.61h0l1.962-3.92,4.471,1.73a4.3,4.3,0,0,1,2.51,3.91v4.2a0.623,0.623,0,0,0,1.245,0v-4.2a5.536,5.536,0,0,0-3.285-5.06,0.011,0.011,0,0,0-.012-0.01l-7.44-2.87v-1.75a5.789,5.789,0,0,0,2.207-3.82,2.779,2.779,0,0,0,1.582-.65,2.632,2.632,0,0,0,.276-3.72v-2.3a7.713,7.713,0,0,0-15.426,0v2.36a2.49,2.49,0,0,0-.642,1.66,2.63,2.63,0,0,0,.918,2,2.776,2.776,0,0,0,1.581.65,5.761,5.761,0,0,0,2.333,3.92v1.65l-7.432,2.87a0.011,0.011,0,0,0-.012.01,5.535,5.535,0,0,0-3.284,5.06v12.94a1.6,1.6,0,0,0,1.588,1.59h5.929a0.625,0.625,0,0,0,0-1.25H796.11v-12.23a0.622,0.622,0,0,0-1.244,0v12.23H791.52a0.34,0.34,0,0,1-.343-0.34v-12.94a4.293,4.293,0,0,1,2.509-3.91l4.467-1.73,1.963,3.92a1.088,1.088,0,0,0,.975.61,1.413,1.413,0,0,0,.891-0.39l0.5,0.75-1.86,10.98s0,0.01,0,.01a1.129,1.129,0,0,0,.269.9l1.954,2.14h-2.489a0.625,0.625,0,0,0,0,1.25H816.98a1.6,1.6,0,0,0,1.588-1.59v-5.84A0.623,0.623,0,0,0,817.946,3635.36Zm-8.769-12.57-1.83,3.66c-0.046-.03-1.015-0.72-2.2-1.56,0.514-.64-0.088.11,2.26-2.79Zm-3.679,3.87-0.474.71h-1.552l-0.475-.71,1.251-.88Zm-3.593-5.52v-1.17a6.215,6.215,0,0,0,2.353.45,5.7,5.7,0,0,0,2.328-.49v1.21l-2.338,2.88Zm9.388-8.42a1.4,1.4,0,0,1-.484,1.06,1.463,1.463,0,0,1-.719.33v-2.77A1.394,1.394,0,0,1,811.293,3612.72Zm-13.017,1.39a1.412,1.412,0,0,1-1.2-1.39,1.474,1.474,0,0,1,1.2-1.35v2.74Zm0.033-4.01a2.73,2.73,0,0,0-.594.14v-1.54a6.468,6.468,0,0,1,12.936,0v1.49a3.437,3.437,0,0,0-.561-0.11c0-.59,0-0.48-1.959-2.59a1.114,1.114,0,0,0-1.414-.17,12.076,12.076,0,0,1-7.254,1.95A1.106,1.106,0,0,0,798.309,3610.1Zm1.212,4.5v-4.08a13.26,13.26,0,0,0,7.778-2.1c0.9,0.97,1.389,1.48,1.546,1.67v4.51A4.663,4.663,0,0,1,799.521,3614.6Zm1.627,11.85-1.829-3.66,1.767-.68,2.26,2.78C802.2,3625.7,801.253,3626.37,801.148,3626.45Zm0.714,12.79,1.8-10.62h1.167l1.8,10.62-2.385,2.62Z" transform="translate(-789.938 -3601)"/>
</svg>
