<svg xmlns="http://www.w3.org/2000/svg" width="46.53" height="33.06" viewBox="0 0 46.53 33.06">
  <defs>
    <style>
      .cls-1 {
        fill-rule: evenodd;
      }
    </style>
  </defs>
  <path id="w3.svg" class="cls-1" d="M1134.89,3610.62h-40.43a3.069,3.069,0,0,0-3.05,3.08v15.74a0.764,0.764,0,0,0,.77.77h45a0.762,0.762,0,0,0,.76-0.77V3613.7A3.069,3.069,0,0,0,1134.89,3610.62Zm-40.16,1.55h39.89v0.98a0.926,0.926,0,0,1-.92.93h-38.05a0.933,0.933,0,0,1-.92-0.93v-0.98Zm39.89,12.63h-39.89v-0.1a0.933,0.933,0,0,1,.92-0.93h38.05a0.926,0.926,0,0,1,.92.93v0.1h0Zm-39.89,1.03h39.89v1.03h-39.89v-1.03Zm0,2.06h39.89v0.78h-39.89v-0.78Zm41.68,0.78h-0.77v-3.97a1.953,1.953,0,0,0-1.94-1.96h-38.05a1.953,1.953,0,0,0-1.94,1.96v3.97h-0.77V3613.7a1.538,1.538,0,0,1,.77-1.33v0.78a1.953,1.953,0,0,0,1.94,1.96h38.05a1.953,1.953,0,0,0,1.94-1.96v-0.78a1.538,1.538,0,0,1,.77,1.33v14.97h0Zm-19.38-7.99h-4.71a0.515,0.515,0,0,0,0,1.03h4.71A0.515,0.515,0,0,0,1117.03,3620.68Zm15.44,0a0.512,0.512,0,0,0-.51.51,0.514,0.514,0,0,0,.15.37,0.533,0.533,0,0,0,.36.15,0.512,0.512,0,0,0,.51-0.52,0.508,0.508,0,0,0-.15-0.36A0.475,0.475,0,0,0,1132.47,3620.68Zm-2.35,0a0.475,0.475,0,0,0-.36.15,0.491,0.491,0,0,0-.15.36,0.512,0.512,0,0,0,.51.52,0.533,0.533,0,0,0,.36-0.15,0.514,0.514,0,0,0,.15-0.37A0.512,0.512,0,0,0,1130.12,3620.68Zm-19.66,12.91a0.52,0.52,0,0,0-.19-0.7,0.512,0.512,0,0,0-.7.2,5.613,5.613,0,0,0,0,5.42,4.55,4.55,0,0,1,0,4.41,0.512,0.512,0,0,0,.2.7,0.451,0.451,0,0,0,.25.07,0.5,0.5,0,0,0,.44-0.27,5.613,5.613,0,0,0,0-5.42A4.6,4.6,0,0,1,1110.46,3633.59Zm4.66,0a0.52,0.52,0,0,0-.19-0.7,0.512,0.512,0,0,0-.7.2,5.613,5.613,0,0,0,0,5.42,4.55,4.55,0,0,1,0,4.41,0.512,0.512,0,0,0,.2.7,0.43,0.43,0,0,0,.25.07,0.51,0.51,0,0,0,.44-0.27,5.613,5.613,0,0,0,0-5.42A4.6,4.6,0,0,1,1115.12,3633.59Zm4.66,0a0.514,0.514,0,0,0-.2-0.7,0.5,0.5,0,0,0-.69.2,5.613,5.613,0,0,0,0,5.42,4.6,4.6,0,0,1,0,4.41,0.518,0.518,0,0,0,.19.7,0.475,0.475,0,0,0,.25.07,0.514,0.514,0,0,0,.45-0.27,5.613,5.613,0,0,0,0-5.42A4.55,4.55,0,0,1,1119.78,3633.59Z" transform="translate(-1091.41 -3610.63)"/>
</svg>
