<svg xmlns="http://www.w3.org/2000/svg" width="35.09" height="35.22" viewBox="0 0 35.09 35.22">
  <defs>
    <style>
      .cls-1 {
        fill-rule: evenodd;
      }
    </style>
  </defs>
  <path id="w4.svg" class="cls-1" d="M1434.48,3639.25h-17.52a0.523,0.523,0,0,1-.37-0.89l2.96-2.98h-15.73a3.928,3.928,0,0,1-3.89-3.63,0.41,0.41,0,0,1-.01-0.11v-22.03a4.072,4.072,0,0,1,4.05-4.08,0.521,0.521,0,0,1,.51.52v5.13h15.99l3.58-3.61,1.67-1.68,1.39-1.4a1.574,1.574,0,0,1,1.11-.46,1.592,1.592,0,0,1,1.11.46l1.6,1.62a1.574,1.574,0,0,1,.46,1.11,1.6,1.6,0,0,1-.46,1.12l-1.39,1.4h0l-1.43,1.44h3.95a0.516,0.516,0,0,1,.52.52v10.56l1.54-1.55a0.509,0.509,0,0,1,.56-0.11,0.525,0.525,0,0,1,.32.48v17.65A0.516,0.516,0,0,1,1434.48,3639.25Zm-4.28-31.64a0.549,0.549,0,0,0,0-.77l-1.6-1.61a0.537,0.537,0,0,0-.76,0l-1.02,1.03,2.36,2.38Zm-1.75,1.76-2.36-2.38-0.95.95,2.37,2.38Zm5.52,26.37h-0.95a0.52,0.52,0,0,1,0-1.04h0.95v-1.56h-0.95a0.52,0.52,0,0,1,0-1.04h0.95v-1.56h-0.95a0.52,0.52,0,0,1,0-1.04h0.95v-1.56h-0.95a0.52,0.52,0,0,1,0-1.04h0.95v-4.57l-9.06,9.12h0a0.151,0.151,0,0,1-.04.04,0.539,0.539,0,0,1-.32.11,0.568,0.568,0,0,1-.33-0.11,0.151,0.151,0,0,0-.04-0.04,0.519,0.519,0,0,1,0-.73l7.37-7.42v-11.08h-4.47l-10.6,10.67a0.151,0.151,0,0,1-.04.04l-0.01.01a0.053,0.053,0,0,0-.03.02c-0.01,0-.01.01-0.02,0.01s-0.02.01-.03,0.02a0.02,0.02,0,0,0-.02.01c-0.01,0-.02.01-0.03,0.01h-0.01l-3.14,1.12h10.23a0.52,0.52,0,1,1,0,1.04h-14.26a0.52,0.52,0,0,1,0-1.04h1.71a0.235,0.235,0,0,0,.02-0.08l0.69-1.95,1-2.86c0-.01,0-0.01.01-0.01a0.037,0.037,0,0,1,.01-0.03c0-.01,0-0.02.01-0.02s0.01-.02.01-0.03a0.031,0.031,0,0,0,.01-0.02l0.03-.03a0.02,0.02,0,0,1,.01-0.02,0.138,0.138,0,0,0,.03-0.04l2.41-2.42a0.5,0.5,0,0,1,.73,0,0.519,0.519,0,0,1,0,.73l-2.05,2.06,2.37,2.38,10.38-10.46h0l0.28-.28-2.37-2.38-3.37,3.4h0l-3.72,3.75a0.516,0.516,0,0,1-.73-0.73l2.85-2.87h-14.96v10.02h0a0.514,0.514,0,0,1-.51.52,0.523,0.523,0,0,1-.52-0.52h0v-15.63a3.042,3.042,0,0,0-2.5,3v19.31c0.06-.07.13-0.13,0.19-0.2a4.013,4.013,0,0,1,2.32-1.13v-3.27a0.51,0.51,0,1,1,1.02,0v3.76a0.514,0.514,0,0,1-.51.52h-0.19a0.448,0.448,0,0,1-.11.01,0.227,0.227,0,0,0-.04.01c-0.04,0-.08.01-0.12,0.01a0.031,0.031,0,0,0-.02.01,0.688,0.688,0,0,0-.13.02h0a3.022,3.022,0,0,0-2.11,1.66h0c-0.02.05-.04,0.09-0.06,0.13,0,0.01-.01.02-0.01,0.03a1.037,1.037,0,0,0-.04.1c-0.01.02-.01,0.03-0.02,0.05s-0.02.05-.03,0.08a0.309,0.309,0,0,1-.02.08c0,0.02-.01.03-0.01,0.05-0.01.04-.02,0.07-0.03,0.1a0.06,0.06,0,0,1-.01.04c-0.01.04-.01,0.08-0.02,0.12v0.01a0.675,0.675,0,0,0-.02.14h0c-0.02.1-.02,0.2-0.03,0.29a2.862,2.862,0,0,0,2.87,2.8h16.76l2.09-2.1a0.516,0.516,0,0,1,.66-0.06c0.02,0.02.05,0.04,0.07,0.06a0.519,0.519,0,0,1,0,.73l-5.2,5.24h15.77v-2.47Zm-18.79-13.43-1.94-1.95-0.52,1.48,0.98,0.99Zm15.22,6.71a0.509,0.509,0,0,1,.56-0.11,0.525,0.525,0,0,1,.32.48v5.66a0.516,0.516,0,0,1-.52.52h-5.62a0.517,0.517,0,0,1-.37-0.88Zm-0.15,5.52v-3.9l-3.87,3.9h3.87Z" transform="translate(-1399.91 -3604.03)"/>
</svg>
